{"title":"De Heineken Ontvoering (2011) DVDRip DD5.1","uid":7040118,"size":1467597566,"categoryP":"video","categoryS":"movies","magnet":"?xt=urn:btih:30525951b7a72dcc5ce6d3ba3c0a24da8ce49d22&amp;dn=De+Heineken+Ontvoering+%282011%29+DVDRip+DD5.1&amp;tr=udp%3A%2F%2Ftracker.openbittorrent.com%3A80&amp;tr=udp%3A%2F%2Fopen.demonii.com%3A1337&amp;tr=udp%3A%2F%2Ftracker.coppersurfer.tk%3A6969&amp;tr=udp%3A%2F%2Fexodus.desync.com%3A6969","seeders":2,"leechers":0,"uploader":"NLUPPER002","files":-1,"time":1329509132,"description":"De Heineken Ontvoering (2011) DVDRip DD5.1\n.\n[IMG]http://img832.imageshack.us/img832/7168/75990.jpg[/IMG]\n.\nNederland\nMisdaad / Thriller\n120 minuten\n\ngeregisseerd door Maarten Treurniet\nmet Rutger Hauer, Reinout Scholten van Aschat en Gijs Naber\n\nDe Heineken Ontvoering is geÃ‚Â´nspireerd op de bekendste ontvoeringszaak in Nederland. De biermagnaat Alfred Heineken wordt in 1983 samen met zijn chauffeur Ab Doderer ontvoerd door vier mannen, die 35 miljoen gulden losgeld eisen. Vier jonge, op geld beluste criminelen die elkaar al van jongs af aan kennen en een hechte clan vormen, sluiten Heineken en Doderer twee weken lang op in een Amsterdamse loods. De film laat het spannende verhaal van de ontvoering en de jacht op de daders zien, maar biedt ook een kijkje in de psychologische machtsstrijd tussen Heineken en zijn ontvoerders.\n\nVanaf 21 februari te huur\nVanaf 8 maart te koop op Blu-Ray en DVD\n. &lt;a href=&quot;\nhttp://www.moviemeter.nl/film/75990&quot; rel=&quot;nofollow&quot; target=&quot;_NEW&quot;&gt;\nhttp://www.moviemeter.nl/film/75990&lt;/a&gt;\n.\nPLOT\n. &lt;a href=&quot;\nhttp://www.imdb.com/title/tt1846526/&quot; rel=&quot;nofollow&quot; target=&quot;_NEW&quot;&gt;\nhttp://www.imdb.com/title/tt1846526/&lt;/a&gt;\n.\nINFO\n.\nSource: exvid-paardenpis-cd1.r00, exvid-paardenpis-cd2.r00\n2CD versie Onduidelijk maar weet zeker dat dit een dvdrip is kwaliteit is zeer goed.\nHeb deze 2 bestanden netjes aan elkaar gemaakt, thanks virtualdub\nAudio Dutch\nSubs: NON\n.\nEnjoy\n.\nFormat : AVI\nFormat/Info : Audio Video Interleave\nFile size : 1.37 GiB\nDuration : 1h 57mn\nOverall bit rate : 1 661 Kbps\nWriting application : VirtualDubMod 1.5.10.2 (build 2540/release)\nWriting library : VirtualDub build 32842/release\n\nVideo\nID : 0\nFormat : MPEG-4 Visual\nFormat profile : Advanced Simple@L5\nFormat settings, BVOP : 2\nFormat settings, QPel : No\nFormat settings, GMC : No warppoints\nFormat settings, Matrix : Default (H.263)\nMuxing mode : Packed bitstream\nCodec ID : XVID\nCodec ID/Hint : XviD\nDuration : 1h 57mn\nBit rate : 1 204 Kbps\nWidth : 640 pixels\nHeight : 272 pixels\nDisplay aspect ratio : 2.35:1\nFrame rate : 25.000 fps\nColor space : YUV\nChroma subsampling : 4:2:0\nBit depth : 8 bits\nScan type : Progressive\nCompression mode : Lossy\nBits/(Pixel*Frame) : 0.277\nStream size : 1 014 MiB (72%)\nWriting library : XviD 62\n\nAudio\nID : 1\nFormat : AC-3\nFormat/Info : Audio Coding 3\nMode extension : CM (complete main)\nCodec ID : 2000\nDuration : 1h 57mn\nBit rate mode : Constant\nBit rate : 448 Kbps\nChannel(s) : 6 channels\nChannel positions : Front: L C R, Side: L R, LFE\nSampling rate : 48.0 KHz\nBit depth : 16 bits\nCompression mode : Lossy\nStream size : 377 MiB (27%)\nAlignment : Split accross interleaves\nInterleave, duration : 40 ms (1.00 video frame)\nInterleave, preload duration : 500 ms\n","torrent":{"xt":"urn:btih:30525951b7a72dcc5ce6d3ba3c0a24da8ce49d22","amp;dn":"De+Heineken+Ontvoering+%282011%29+DVDRip+DD5.1","amp;tr":["udp%3A%2F%2Ftracker.openbittorrent.com%3A80","udp%3A%2F%2Fopen.demonii.com%3A1337","udp%3A%2F%2Ftracker.coppersurfer.tk%3A6969","udp%3A%2F%2Fexodus.desync.com%3A6969"],"infoHash":"30525951b7a72dcc5ce6d3ba3c0a24da8ce49d22","infoHashBuffer":{"type":"Buffer","data":[48,82,89,81,183,167,45,204,92,230,211,186,60,10,36,218,140,228,157,34]},"announce":[],"urlList":[]}}